<?xml version="1.0" standalone="no"?>
<!DOCTYPE svg PUBLIC "-//W3C//DTD SVG 20010904//EN"
 "http://www.w3.org/TR/2001/REC-SVG-20010904/DTD/svg10.dtd">
<svg version="1.0" xmlns="http://www.w3.org/2000/svg"
 width="400.000000pt" height="400.000000pt" viewBox="0 0 400.000000 400.000000"
 preserveAspectRatio="xMidYMid meet">

<g transform="translate(0.000000,400.000000) scale(0.100000,-0.100000)"
fill="#000000" stroke="none">
<path d="M1095 3588 c-3 -7 -4 -348 -3 -758 l3 -745 3 753 2 752 900 0 900 0
3 -750 2 -750 0 752 0 753 -903 3 c-717 2 -904 0 -907 -10z"/>
<path d="M1530 3481 c0 -56 3 -71 15 -71 9 0 15 10 15 26 0 33 33 30 38 -4 2
-12 10 -22 18 -22 16 0 18 27 5 49 -6 9 -5 21 2 33 19 29 -3 52 -52 56 l-41 3
0 -70z m68 26 c2 -12 -3 -17 -17 -17 -15 0 -21 6 -21 21 0 25 33 22 38 -4z"/>
<path d="M1650 3480 c0 -56 3 -70 15 -70 12 0 15 14 15 70 0 56 -3 70 -15 70
-12 0 -15 -14 -15 -70z"/>
<path d="M1716 3528 c-22 -30 -20 -81 2 -101 27 -25 78 -22 96 5 36 51 8 118
-49 118 -24 0 -39 -7 -49 -22z m73 -12 c17 -20 10 -67 -11 -79 -23 -15 -48 8
-48 42 0 45 35 66 59 37z"/>
<path d="M1850 3481 c0 -56 3 -71 15 -71 11 0 15 11 15 43 l0 42 26 -42 c38
-65 54 -57 54 27 0 78 -17 96 -22 23 l-3 -48 -25 45 c-14 25 -33 46 -43 48
-15 3 -17 -5 -17 -67z"/>
<path d="M1990 3480 l0 -70 45 0 c25 0 45 5 45 10 0 6 -13 10 -30 10 -23 0
-30 4 -30 20 0 15 7 20 25 20 14 0 25 5 25 10 0 6 -11 10 -25 10 -16 0 -25 6
-25 15 0 9 9 15 25 15 16 0 25 6 25 15 0 11 -11 15 -40 15 l-40 0 0 -70z"/>
<path d="M2110 3530 c-26 -26 -26 -81 -2 -103 11 -10 36 -17 60 -17 l42 0 0
40 c0 36 -3 40 -24 40 -29 0 -44 -18 -22 -26 22 -8 20 -34 -2 -34 -26 0 -42
20 -42 52 0 31 30 53 60 43 14 -4 20 -2 20 9 0 24 -65 21 -90 -4z"/>
<path d="M2230 3480 c0 -56 3 -70 15 -70 9 0 15 9 15 25 0 15 6 25 14 25 8 0
17 -11 20 -25 4 -14 13 -25 21 -25 18 0 18 1 5 35 -7 18 -7 33 0 46 18 33 -4
59 -50 59 l-40 0 0 -70z m65 30 c0 -8 -8 -16 -17 -18 -13 -2 -18 3 -18 18 0
15 5 20 18 18 9 -2 17 -10 17 -18z"/>
<path d="M2360 3530 c-43 -43 -14 -120 44 -120 42 0 66 26 66 72 0 62 -67 91
-110 48z m68 -12 c17 -17 15 -63 -4 -79 -34 -28 -68 26 -44 70 12 24 30 27 48
9z"/>
<path d="M1322 2753 l3 -608 2 603 3 602 671 0 670 0 -3 -627 c-2 -345 0 -614
3 -598 4 17 7 301 8 633 l1 602 -680 0 -680 0 2 -607z"/>
<path d="M1945 3240 c-11 -5 -39 -9 -63 -9 -35 -1 -44 -5 -54 -26 -10 -21 -9
-29 6 -43 16 -16 17 -16 11 0 -5 11 -1 20 8 24 9 3 13 12 10 21 -4 11 -2 14 6
9 6 -4 36 0 66 10 l55 17 38 -27 c44 -30 101 -34 146 -11 16 9 31 13 33 11 8
-8 -41 -46 -61 -47 -16 0 -13 -3 9 -10 17 -5 41 -7 54 -4 22 6 23 4 11 -10
-11 -13 -27 -15 -82 -11 -41 3 -70 0 -74 -6 -4 -6 -1 -9 7 -6 7 2 29 -6 48
-19 18 -13 47 -23 63 -23 17 0 27 -4 23 -10 -11 -18 -62 -10 -101 15 l-39 26
33 -31 c25 -23 42 -30 73 -30 24 0 38 -4 34 -10 -3 -5 -24 -10 -45 -10 -29 0
-48 8 -73 30 l-34 30 0 -24 c0 -35 68 -99 107 -100 34 -1 37 5 15 28 -21 20
-19 23 14 29 20 4 34 17 45 38 9 18 16 33 16 33 0 1 -26 2 -58 4 -35 2 -63 9
-72 19 -13 14 -12 14 10 8 50 -16 94 -24 102 -19 15 10 8 23 -9 17 -17 -6 -17
-5 0 14 9 11 17 27 17 37 0 16 -2 16 -22 2 -34 -24 -42 -19 -19 10 12 15 21
35 21 45 0 17 -3 16 -36 -6 -48 -33 -100 -33 -148 0 -39 26 -58 29 -91 15z
m198 -234 c32 -19 30 -32 -2 -21 -26 8 -81 53 -81 66 0 5 12 1 28 -9 15 -11
40 -27 55 -36z"/>
<path d="M1954 3209 c-14 -16 -16 -22 -5 -28 19 -12 55 -1 42 12 -21 21 -11
30 12 11 l22 -19 -19 23 c-23 27 -28 27 -52 1z"/>
<path d="M1752 3208 c-7 -7 -12 -24 -12 -38 0 -34 17 -50 52 -50 26 0 28 -2
18 -21 -9 -16 -8 -24 4 -38 9 -10 16 -23 16 -29 0 -16 8 -15 26 3 9 8 12 20 8
26 -4 8 -9 7 -15 -2 -8 -11 -12 -10 -24 6 -13 16 -13 21 -1 33 10 10 22 11 49
4 37 -10 47 -7 47 13 0 19 -46 34 -83 28 -51 -8 -81 12 -73 48 6 32 5 34 -12
17z"/>
<path d="M2022 3168 c6 -16 77 -28 85 -15 8 14 -17 27 -55 27 -23 0 -32 -4
-30 -12z"/>
<path d="M2785 3107 c-37 -14 -60 -28 -60 -37 0 -19 124 -65 138 -51 6 6 1 13
-12 20 -27 15 -27 47 -1 61 22 12 27 30 8 29 -7 0 -40 -10 -73 -22z m23 -38
c-2 -6 -7 -10 -11 -10 -4 1 -15 1 -24 1 -15 0 -16 2 -3 10 20 13 43 13 38 -1z"/>
<path d="M1502 3090 c-28 -12 -36 -32 -28 -66 7 -25 8 -26 27 -9 19 18 19 17
13 -13 -6 -31 7 -45 21 -22 12 19 42 10 53 -15 16 -34 15 -47 -3 -81 -20 -40
-20 -61 0 -44 22 18 26 8 10 -23 -12 -24 -12 -27 4 -27 9 0 22 5 29 12 9 9 12
6 12 -15 0 -15 -7 -30 -15 -33 -24 -9 -5 -26 21 -20 19 5 22 3 17 -11 -5 -13
-3 -15 11 -10 14 6 17 3 12 -9 -5 -13 -1 -15 19 -12 14 3 25 2 25 -2 0 -15
-61 -60 -88 -65 -15 -3 -42 -10 -60 -16 -26 -9 -40 -7 -69 6 -28 13 -41 15
-59 6 -25 -11 -34 -54 -14 -66 7 -4 9 2 5 17 -10 41 17 55 65 33 32 -14 44
-15 71 -6 18 6 42 11 54 11 12 0 40 12 61 26 21 15 33 19 25 10 -11 -13 -10
-18 2 -31 9 -8 20 -15 26 -15 6 0 18 -15 27 -32 l17 -33 -21 19 c-17 15 -23
16 -26 5 -14 -43 -15 -44 -21 -21 -11 33 -21 27 -22 -14 -1 -39 -23 -74 -23
-37 0 28 -10 53 -21 53 -5 0 -9 -6 -9 -13 0 -7 -7 -22 -15 -33 -15 -18 -15
-18 -13 11 2 31 -7 55 -22 55 -5 0 -22 -12 -39 -26 -24 -20 -31 -22 -31 -10 0
10 -6 13 -15 10 -10 -4 -15 0 -15 16 0 11 -4 19 -10 15 -15 -9 8 -48 35 -62
20 -9 25 -8 25 2 0 14 37 45 53 45 5 0 7 -23 5 -52 l-5 -52 33 37 34 37 0 -31
c0 -34 17 -35 34 -3 6 10 12 21 13 23 2 2 9 -2 18 -9 13 -11 15 -8 15 19 0 19
4 30 10 26 6 -3 10 -16 10 -28 0 -20 0 -20 16 -1 11 14 17 16 21 6 9 -23 122
-92 141 -86 13 5 14 4 3 -4 -11 -8 -5 -15 27 -31 23 -12 48 -21 57 -21 18 0
55 -35 55 -53 0 -11 -10 -12 -48 -4 -78 16 -119 3 -179 -59 -29 -30 -57 -54
-63 -54 -6 0 -8 -5 -4 -11 4 -7 25 9 54 40 59 63 105 84 167 75 25 -4 41 -9
36 -13 -4 -3 2 -16 14 -28 13 -12 23 -19 23 -15 0 4 12 -13 27 -38 47 -81 84
-110 43 -34 -15 28 -16 32 -3 14 10 -13 30 -38 44 -55 28 -32 27 -58 -5 -84
-18 -15 -21 -8 -6 19 11 20 4 50 -11 50 -5 0 -9 -6 -9 -14 0 -7 -6 -19 -14
-25 -12 -10 -13 -8 -9 8 3 12 2 28 -1 37 -6 16 -8 15 -22 -2 -15 -18 -15 -18
-11 2 12 57 -43 73 -69 22 -9 -18 -21 -36 -26 -39 -7 -4 -6 -9 0 -13 6 -3 19
11 29 31 23 49 49 51 46 5 -1 -31 1 -33 23 -28 22 6 23 4 17 -26 l-6 -33 26
18 c30 20 35 13 10 -15 -15 -17 -15 -18 4 -18 11 0 32 9 46 20 l25 20 6 -23
c18 -69 -4 -121 -57 -135 -34 -9 -43 -27 -33 -68 7 -27 61 -60 71 -44 11 18
15 71 5 65 -6 -4 -10 -17 -10 -31 0 -16 -4 -23 -11 -18 -6 3 -9 17 -6 30 2 13
0 21 -4 18 -5 -3 -9 -14 -9 -25 0 -23 -15 -25 -24 -3 -14 38 -6 60 26 69 57
18 80 69 64 145 -5 26 -4 31 3 20 6 -8 11 -11 11 -5 0 5 7 -1 16 -13 8 -12 21
-22 29 -22 8 0 17 -5 21 -12 4 -7 3 -8 -4 -4 -8 5 -10 2 -6 -8 7 -18 24 -22
24 -5 0 5 5 7 12 3 8 -5 6 -10 -8 -17 -24 -10 -49 -95 -40 -132 7 -27 -3 -32
-22 -13 -9 9 -12 9 -12 1 0 -14 36 -27 50 -18 6 4 6 12 -2 24 -18 29 8 107 43
132 36 26 37 39 2 40 -28 0 -28 0 -5 11 22 11 40 53 28 65 -3 3 -14 -1 -24
-10 -26 -24 -30 -22 -34 19 -2 24 -10 41 -23 48 -29 16 -35 27 -35 67 0 26 8
42 29 63 33 32 46 23 36 -27 l-6 -32 20 24 21 23 8 -23 c11 -29 26 -8 18 25
-4 18 0 28 19 40 25 16 31 39 19 70 -8 22 -23 20 -17 -2 7 -28 -19 -45 -43
-28 -19 14 -27 48 -69 311 -24 147 -6 215 58 215 49 0 57 -14 57 -102 0 -118
32 -162 105 -144 29 7 25 26 -5 26 -10 0 -22 5 -25 10 -3 6 3 10 14 10 27 0
51 10 51 22 0 5 -5 6 -10 3 -6 -4 -16 -3 -23 3 -19 15 -47 22 -47 13 0 -5 12
-14 28 -19 18 -7 21 -11 9 -11 -10 -1 -27 4 -38 9 -34 19 -22 -18 14 -40 27
-17 29 -20 11 -20 -12 0 -32 9 -45 19 -22 17 -24 28 -25 106 -2 73 -5 91 -22
107 -27 28 -69 26 -98 -4 -37 -36 -40 -100 -14 -248 12 -69 25 -152 27 -185 5
-51 10 -63 35 -84 25 -20 33 -22 49 -13 11 7 19 8 19 3 0 -5 -13 -14 -30 -19
-21 -8 -28 -15 -24 -27 9 -23 -19 -15 -29 9 -4 11 -13 16 -23 12 -9 -4 -22 -2
-29 4 -10 8 -15 8 -21 -1 -4 -7 -3 -9 4 -5 18 11 23 -11 4 -25 -9 -7 -14 -10
-10 -5 4 5 -4 18 -18 29 -14 11 -23 26 -20 34 3 8 2 12 -3 9 -7 -4 -71 58 -71
70 0 2 8 1 18 -2 14 -5 14 -4 -2 6 -14 10 -20 10 -27 -1 -6 -11 -9 -10 -15 4
-3 9 -14 17 -23 18 -10 0 -11 2 -3 6 6 2 9 9 6 15 -3 5 -15 2 -27 -9 -12 -9
-5 1 17 24 l39 42 39 -50 c39 -50 81 -133 71 -142 -9 -9 41 5 55 16 17 14 15
60 -9 173 -30 142 -36 291 -15 332 20 38 43 52 89 52 44 0 73 -24 89 -75 15
-45 39 -56 69 -29 19 17 20 17 13 -2 -4 -10 -11 -25 -17 -31 -6 -8 -6 -13 0
-13 17 0 33 48 24 72 -9 23 -9 23 -22 -5 -16 -36 -41 -31 -52 10 -25 84 -120
114 -179 56 -55 -55 -56 -98 -11 -360 21 -125 24 -155 13 -168 -20 -24 -29
-18 -50 31 -11 25 -38 67 -61 94 -41 49 -41 50 -30 94 6 25 11 103 11 174 0
121 -1 130 -20 135 -11 3 -20 10 -20 17 0 6 5 8 11 4 7 -4 9 1 7 12 -2 11 -11
18 -21 16 -10 -2 -36 17 -62 43 -25 26 -45 43 -45 38 0 -5 18 -27 41 -48 22
-22 45 -48 50 -57 16 -29 -56 18 -86 56 -14 17 -25 25 -25 17 0 -8 18 -31 40
-51 22 -20 40 -40 40 -44 0 -13 -81 35 -86 52 -15 45 -16 47 -21 34 -3 -7 4
-30 15 -52 18 -37 18 -40 2 -40 -18 0 -53 58 -44 72 9 14 -6 8 -37 -14 -31
-23 -76 -28 -157 -17 -29 4 -31 5 -15 17 13 10 37 12 85 8 65 -6 69 -5 103 25
19 17 35 38 35 48 0 11 -7 7 -25 -14 l-24 -30 4 40 c2 22 2 31 -1 20 -10 -34
-24 -41 -24 -12 0 34 -11 34 -27 1 -10 -21 -9 -25 1 -21 8 3 13 -4 13 -22 l0
-26 -68 3 c-63 4 -70 2 -92 -22 -13 -14 -27 -26 -31 -26 -4 0 -20 29 -36 64
-16 36 -39 72 -52 80 -32 21 -78 28 -106 16z m103 -32 c14 -13 34 -48 45 -78
25 -69 25 -76 -1 -27 -17 32 -23 36 -35 26 -13 -10 -18 -6 -15 14 0 4 -4 7
-10 7 -5 0 -8 4 -5 8 8 14 -35 44 -55 39 -26 -7 -24 2 4 13 22 9 22 9 -3 9
-15 1 -32 -5 -40 -11 -12 -11 -12 -10 -1 5 20 25 84 23 116 -5z m-41 -37 c3
-5 -3 -11 -14 -14 -20 -5 -26 3 -13 16 9 10 21 9 27 -2z m53 -83 c-3 -8 -6 -5
-6 6 -1 11 2 17 5 13 3 -3 4 -12 1 -19z m324 -6 c-6 -11 -18 -23 -27 -26 -14
-5 -15 -4 -4 9 7 8 9 15 4 15 -5 0 0 7 10 15 24 18 31 13 17 -13z m-184 -13
c-14 -8 -22 -8 -30 0 -8 8 -3 11 19 11 25 -1 27 -2 11 -11z m138 1 c-3 -5 -18
-9 -33 -9 l-27 1 30 8 c17 4 31 8 33 9 2 0 0 -3 -3 -9z m-176 -24 c-1 -6 -5
-22 -10 -36 -8 -22 -8 -21 -4 8 3 24 1 32 -10 32 -8 0 -15 4 -15 9 0 5 9 7 20
4 11 -3 20 -10 19 -17z m41 -5 c-12 -23 -30 -36 -30 -22 0 10 27 41 36 41 3 0
0 -9 -6 -19z m320 -31 c0 -5 -4 -10 -10 -10 -5 0 -10 5 -10 10 0 6 5 10 10 10
6 0 10 -4 10 -10z m-240 -37 c0 -7 5 -13 10 -13 6 0 10 -9 10 -21 0 -12 -4
-17 -11 -13 -8 4 -9 0 -4 -15 5 -17 2 -21 -14 -21 -18 0 -21 6 -21 48 0 37 4
49 15 49 8 0 15 -6 15 -14z m242 -8 c6 -29 0 -32 -18 -7 -17 22 -17 32 0 32 7
0 16 -11 18 -25z m-166 -12 c-1 -21 -6 -28 -21 -28 -11 0 -21 8 -23 18 -2 10
3 17 12 17 9 0 16 5 16 10 0 6 4 10 9 10 4 0 8 -12 7 -27z m140 -49 c-11 -7
-22 -12 -25 -9 -2 3 4 12 15 19 10 8 21 12 24 9 3 -2 -4 -11 -14 -19z m-136
-4 c0 -5 -7 -10 -16 -10 -8 0 -12 5 -9 10 3 6 10 10 16 10 5 0 9 -4 9 -10z
m131 -169 c-7 -4 -11 -14 -9 -22 4 -18 -24 -18 -30 0 -3 8 0 11 7 7 6 -4 11
-2 11 3 0 6 -4 11 -10 11 -15 0 -12 58 3 63 18 6 44 -52 28 -62z m69 29 c0
-25 -3 -29 -22 -26 -13 1 -24 11 -26 20 -2 9 0 16 5 15 20 -3 34 2 28 11 -3 6
-1 10 4 10 6 0 11 -13 11 -30z m-234 1 c0 -15 -3 -17 -13 -9 -7 6 -13 14 -13
19 0 5 6 9 13 9 7 0 13 -9 13 -19z m-12 -56 c-4 -8 -13 -15 -21 -15 -13 0 -13
3 -3 15 7 8 16 15 21 15 5 0 6 -7 3 -15z m246 5 c0 -5 -10 -10 -22 -9 -22 0
-22 1 -3 9 11 5 21 9 23 9 1 1 2 -3 2 -9z"/>
<path d="M1159 3049 c-14 -14 -19 -30 -17 -52 2 -18 7 -30 13 -27 5 3 9 11 7
17 -6 26 18 53 46 53 36 0 52 -17 52 -52 0 -33 19 -38 21 -5 2 39 -2 52 -23
70 -27 23 -73 22 -99 -4z"/>
<path d="M2780 2990 c-69 -6 -74 -28 -12 -50 23 -8 42 -17 42 -21 0 -4 -16
-10 -35 -13 -39 -8 -65 -40 -39 -50 27 -10 136 -7 129 4 -3 6 -19 10 -34 10
-42 0 -46 13 -9 26 41 14 42 34 3 46 -58 18 -60 22 -12 27 26 4 49 10 50 15 3
12 -14 13 -83 6z"/>
<path d="M1140 2930 c0 -6 30 -10 70 -10 40 0 70 4 70 10 0 6 -30 10 -70 10
-40 0 -70 -4 -70 -10z"/>
<path d="M1157 2872 c-22 -24 -21 -55 1 -75 24 -22 122 -24 122 -2 0 10 -15
15 -57 17 -50 3 -58 6 -58 23 0 17 8 20 58 23 42 2 57 7 57 17 0 23 -102 20
-123 -3z"/>
<path d="M2734 2805 c-10 -16 -14 -34 -10 -50 6 -25 9 -26 74 -23 65 3 89 20
37 26 -35 5 -31 28 7 41 22 8 28 15 21 22 -6 6 -19 6 -38 -1 -20 -7 -31 -8
-39 0 -17 17 -35 12 -52 -15z m54 -28 c2 -11 -3 -17 -16 -17 -24 0 -32 8 -25
26 7 20 37 13 41 -9z"/>
<path d="M2500 2759 c0 -5 9 -9 21 -9 11 0 17 -4 14 -10 -9 -14 8 -13 23 2 19
19 15 23 -23 25 -19 1 -35 -3 -35 -8z"/>
<path d="M1143 2708 c14 -105 137 -103 137 2 l0 40 -71 0 -72 0 6 -42z m117
-1 c0 -47 -52 -64 -85 -27 -28 31 -13 50 40 50 40 0 45 -2 45 -23z"/>
<path d="M2785 2691 c-72 -26 -73 -52 -2 -74 30 -9 62 -17 73 -17 18 1 17 2
-3 19 -26 22 -31 61 -8 61 8 0 15 7 15 15 0 19 -12 18 -75 -4z m25 -42 c0 -12
-37 -12 -45 0 -3 5 3 11 12 13 21 5 33 0 33 -13z"/>
<path d="M1140 2609 c0 -6 9 -13 20 -16 13 -3 20 -14 20 -28 0 -15 -8 -26 -20
-30 -11 -3 -20 -11 -20 -17 0 -13 55 -3 105 18 49 20 42 43 -20 65 -59 21 -85
23 -85 8z m103 -39 c16 0 -14 -20 -30 -20 -7 0 -13 7 -13 16 0 11 5 14 16 10
9 -3 21 -6 27 -6z"/>
<path d="M1458 2585 c-6 -11 10 -61 17 -53 2 2 1 17 -3 33 -5 16 -11 25 -14
20z"/>
<path d="M2730 2496 l0 -46 65 0 65 0 0 45 c0 25 -4 45 -10 45 -5 0 -10 -13
-10 -30 0 -23 -4 -30 -20 -30 -15 0 -20 7 -20 25 0 14 -4 25 -10 25 -5 0 -10
-11 -10 -25 0 -16 -6 -25 -15 -25 -9 0 -15 9 -15 24 0 14 -4 28 -10 31 -6 4
-10 -12 -10 -39z"/>
<path d="M1140 2456 c0 -64 47 -104 100 -84 32 12 40 25 40 71 l0 37 -70 0
c-68 0 -70 -1 -70 -24z m120 -21 c0 -23 -24 -45 -49 -45 -16 0 -51 38 -51 55
0 11 12 15 50 15 46 0 50 -2 50 -25z"/>
<path d="M2752 2422 c-17 -11 -32 -66 -25 -92 5 -19 12 -21 72 -18 l66 3 -1
38 c-1 21 -9 46 -19 57 -19 20 -69 27 -93 12z m79 -31 c4 -3 10 -16 14 -29 6
-22 5 -23 -47 -20 -47 3 -53 5 -50 23 6 38 56 54 83 26z"/>
<path d="M1825 2181 c7 -12 -31 -25 -45 -16 -20 12 -10 -14 11 -29 20 -14 17
-15 -45 -15 -47 0 -76 -5 -99 -18 -64 -38 -71 -109 -13 -144 41 -25 53 -24 60
5 9 38 34 56 79 57 32 2 35 3 13 6 -46 7 -75 -5 -96 -40 l-20 -32 0 39 c0 46
-11 43 -12 -3 -1 -39 -5 -39 -24 2 -9 19 -13 23 -10 10 5 -29 0 -29 -14 -2
-16 29 4 76 40 94 15 8 53 14 86 13 32 0 70 4 84 10 l25 10 -28 7 -28 7 30 19
c34 21 39 29 15 29 -8 0 -13 -4 -9 -9z"/>
<path d="M1934 2156 c-3 -8 -4 -23 -1 -33 3 -12 5 -8 6 10 0 15 5 27 11 27 12
0 29 -64 18 -68 -11 -5 -10 -22 2 -22 6 0 18 16 27 35 13 27 14 38 5 47 -9 9
-12 4 -13 -22 l0 -35 -12 34 c-13 38 -34 51 -43 27z"/>
<path d="M1332 2120 c0 -14 2 -19 5 -12 2 6 2 18 0 25 -3 6 -5 1 -5 -13z"/>
<path d="M1102 2040 c0 -14 2 -19 5 -12 2 6 2 18 0 25 -3 6 -5 1 -5 -13z"/>
<path d="M1356 2040 c27 -100 165 -255 274 -308 36 -17 79 -34 95 -37 17 -3 3
5 -30 18 -134 51 -248 154 -310 280 -20 40 -33 61 -29 47z"/>
<path d="M1922 2040 c-7 -12 -26 -20 -54 -23 l-43 -4 41 -1 c30 -2 46 3 59 18
10 11 16 22 14 25 -3 2 -10 -4 -17 -15z"/>
<path d="M2611 1987 c-32 -68 -112 -160 -186 -216 l-30 -22 33 18 c55 29 157
145 192 217 18 37 31 68 29 70 -2 2 -19 -28 -38 -67z"/>
<path d="M2891 2044 c0 -11 3 -14 6 -6 3 7 2 16 -1 19 -3 4 -6 -2 -5 -13z"/>
<path d="M2876 1989 c-8 -42 0 -50 9 -9 4 17 5 34 2 36 -2 3 -7 -10 -11 -27z"/>
<path d="M1111 2000 c0 -8 4 -24 9 -35 5 -13 9 -14 9 -5 0 8 -4 24 -9 35 -5
13 -9 14 -9 5z"/>
<path d="M1136 1920 c25 -91 126 -236 215 -310 60 -50 165 -113 209 -125 14
-4 -10 11 -53 33 -150 77 -257 186 -333 337 -25 50 -42 79 -38 65z"/>
<path d="M2856 1925 c-9 -26 -7 -32 5 -12 6 10 9 21 6 23 -2 3 -7 -2 -11 -11z"/>
<path d="M2257 1871 c-20 -64 -20 -61 -7 -61 6 0 10 13 10 29 0 16 5 31 11 33
6 2 9 15 7 28 -3 20 -7 14 -21 -29z"/>
<path d="M2812 1827 c-59 -115 -169 -226 -292 -296 -30 -17 -50 -31 -45 -31
18 0 127 70 182 117 29 25 74 73 99 107 45 59 99 154 92 161 -2 2 -18 -24 -36
-58z"/>
<path d="M2377 1744 c-3 -3 -34 -17 -69 -30 -35 -12 -58 -23 -51 -23 19 -1
122 39 128 50 7 10 2 12 -8 3z"/>
<path d="M1567 1683 c-14 -13 -6 -47 14 -70 19 -19 20 -23 6 -29 -8 -3 -25 -1
-36 5 -22 12 -38 -1 -18 -16 38 -30 87 -19 87 19 0 12 -10 32 -21 45 -20 20
-20 23 -5 29 9 3 22 1 30 -5 17 -14 29 -2 15 16 -12 13 -61 18 -72 6z"/>
<path d="M1785 1679 c17 -4 116 -6 220 -6 105 0 179 1 165 3 -50 6 -414 9
-385 3z"/>
<path d="M2208 1683 c6 -2 18 -2 25 0 6 3 1 5 -13 5 -14 0 -19 -2 -12 -5z"/>
<path d="M2380 1673 c-47 -17 -55 -90 -14 -122 15 -12 32 -21 39 -21 7 0 24 9
39 21 34 27 35 71 1 104 -24 25 -36 28 -65 18z m49 -37 c7 -8 11 -27 9 -43 -4
-37 -47 -40 -65 -4 -22 45 25 84 56 47z"/>
<path d="M1668 1602 c-21 -32 -38 -62 -38 -65 0 -14 28 -7 34 8 8 23 35 18 46
-9 19 -51 30 -38 30 37 0 59 -3 76 -16 81 -9 3 -16 6 -17 6 -1 0 -19 -26 -39
-58z m42 -9 c0 -19 -3 -24 -10 -17 -6 6 -8 18 -4 27 9 24 14 21 14 -10z"/>
<path d="M2221 1614 c-12 -15 -21 -34 -21 -44 0 -27 39 -70 63 -70 48 0 67 12
67 39 0 37 -12 51 -38 44 -25 -6 -30 -23 -6 -23 9 0 14 -7 12 -17 -5 -24 -22
-26 -49 -4 -20 16 -22 23 -14 47 7 20 18 30 35 32 42 6 47 22 8 22 -28 0 -42
-7 -57 -26z"/>
<path d="M1781 1569 c-6 -34 -8 -66 -5 -71 10 -16 21 1 29 44 l7 43 20 -52
c32 -82 50 -72 63 36 6 43 4 53 -6 49 -8 -3 -17 -22 -20 -44 l-5 -39 -22 48
c-30 65 -47 61 -61 -14z"/>
<path d="M1910 1609 c0 -6 9 -13 21 -16 18 -5 20 -12 17 -59 -2 -30 1 -55 7
-56 6 -2 11 13 13 32 5 63 11 80 32 80 35 0 22 17 -17 24 -55 9 -73 7 -73 -5z"/>
<path d="M2110 1608 c-1 -7 -7 -39 -14 -70 -15 -60 -4 -91 14 -44 12 32 42 34
63 4 28 -43 30 -8 2 57 -20 47 -32 65 -46 65 -11 0 -19 -6 -19 -12z m40 -60
c0 -5 -7 -8 -15 -8 -17 0 -18 2 -9 25 5 13 8 14 15 3 5 -7 9 -16 9 -20z"/>
<path d="M2032 1543 c4 -85 23 -86 23 -1 0 41 -4 63 -13 66 -10 3 -12 -12 -10
-65z"/>
<path d="M2430 1490 c-8 -5 -10 -10 -5 -10 6 0 17 5 25 10 8 5 11 10 5 10 -5
0 -17 -5 -25 -10z"/>
<path d="M1600 1471 c8 -5 33 -12 55 -15 28 -4 33 -3 15 2 -46 16 -86 23 -70
13z"/>
<path d="M2350 1464 l-45 -14 40 6 c22 3 47 10 55 15 21 12 3 10 -50 -7z"/>
<path d="M1713 1443 c9 -2 25 -2 35 0 9 3 1 5 -18 5 -19 0 -27 -2 -17 -5z"/>
<path d="M2253 1443 c9 -2 25 -2 35 0 9 3 1 5 -18 5 -19 0 -27 -2 -17 -5z"/>
<path d="M1883 1433 c64 -2 170 -2 235 0 64 1 11 3 -118 3 -129 0 -182 -2
-117 -3z"/>
<path d="M460 1030 l0 -140 30 0 30 0 0 140 0 140 -30 0 -30 0 0 -140z"/>
<path d="M980 1031 l0 -141 30 0 31 0 -3 138 -3 137 -27 3 -28 3 0 -140z"/>
<path d="M1210 1127 l0 -43 -35 4 c-71 8 -117 -57 -95 -137 6 -22 18 -45 28
-50 10 -5 49 -9 88 -9 l70 0 -3 76 c-1 43 -2 105 -3 140 0 59 -1 62 -25 62
-23 0 -25 -4 -25 -43z m-12 -89 c7 -7 12 -28 12 -48 0 -56 -47 -84 -70 -41
-30 57 17 130 58 89z"/>
<path d="M1337 1145 c-18 -25 -18 -25 5 -25 13 0 37 11 53 25 l30 24 -35 0
c-26 0 -40 -6 -53 -24z"/>
<path d="M1847 1163 c-4 -3 -7 -23 -7 -42 0 -36 0 -37 -39 -33 -32 3 -45 -1
-65 -22 -34 -33 -37 -110 -6 -149 19 -24 27 -26 95 -26 l75 0 0 140 c0 139 0
139 -23 139 -13 0 -27 -3 -30 -7z m-23 -119 c12 -4 16 -20 16 -55 0 -44 -2
-49 -27 -55 -46 -12 -70 47 -37 94 16 23 23 26 48 16z"/>
<path d="M2490 1145 c0 -21 5 -25 30 -25 25 0 30 4 30 25 0 21 -5 25 -30 25
-25 0 -30 -4 -30 -25z"/>
<path d="M265 1138 c-3 -7 -23 -66 -44 -130 l-40 -118 29 0 c22 0 30 6 39 30
9 28 13 30 60 30 47 0 50 -2 56 -30 5 -25 11 -30 36 -30 17 0 29 5 28 13 0 6
-19 64 -42 127 l-42 115 -38 3 c-24 2 -39 -1 -42 -10z m71 -135 c-2 -2 -17 -3
-33 -1 l-29 3 14 50 14 50 20 -49 c10 -27 17 -51 14 -53z"/>
<path d="M2250 1019 l0 -130 28 3 c25 3 27 7 30 56 3 46 5 52 26 52 35 0 55
-22 58 -65 3 -35 6 -40 31 -43 26 -3 27 -1 27 40 0 24 -6 53 -14 63 -12 17
-12 22 0 39 20 29 17 73 -6 96 -17 17 -33 20 -100 20 l-80 0 0 -131z m134 75
c9 -8 16 -19 16 -23 0 -17 -26 -31 -57 -31 -31 0 -33 2 -33 35 0 32 2 35 29
35 16 0 37 -7 45 -16z"/>
<path d="M587 1065 c-41 -42 -41 -111 -1 -156 34 -38 144 -14 144 31 0 14 -36
13 -59 -2 -40 -25 -74 26 -55 81 11 30 51 41 60 17 8 -21 54 -21 54 -1 0 28
-38 55 -79 55 -28 0 -45 -7 -64 -25z"/>
<path d="M792 1074 c-45 -31 -10 -62 37 -32 22 14 51 4 51 -17 0 -11 -11 -15
-38 -15 -50 0 -82 -23 -82 -60 0 -47 21 -59 100 -58 l70 0 0 84 c0 74 -2 84
-22 98 -12 9 -38 16 -58 16 -20 0 -46 -7 -58 -16z m88 -103 c0 -24 -14 -41
-35 -41 -30 0 -41 16 -25 35 14 16 60 21 60 6z"/>
<path d="M1310 990 l0 -100 30 0 30 0 0 100 0 100 -30 0 -30 0 0 -100z"/>
<path d="M1430 1070 c-27 -27 -25 -40 4 -40 14 0 28 5 31 10 3 6 17 10 31 10
17 0 24 -5 24 -20 0 -17 -7 -20 -40 -20 -67 0 -99 -49 -65 -97 14 -20 24 -22
90 -21 l75 1 0 78 c0 98 -15 119 -85 119 -32 0 -51 -6 -65 -20z m88 -112 c-4
-31 -58 -40 -58 -10 0 25 8 32 37 32 20 0 24 -5 21 -22z"/>
<path d="M1973 1075 c-26 -18 -45 -78 -36 -114 10 -45 42 -71 88 -71 44 0 85
22 85 46 0 17 -33 18 -60 2 -23 -15 -53 -2 -58 26 -3 13 7 16 62 16 60 0 66 2
66 21 0 25 -18 60 -39 76 -22 17 -82 16 -108 -2z m85 -47 c3 -15 -4 -18 -32
-18 -38 0 -44 8 -24 28 17 17 52 11 56 -10z"/>
<path d="M2490 990 l0 -100 30 0 30 0 0 100 0 100 -30 0 -30 0 0 -100z"/>
<path d="M2616 1065 c-21 -20 -26 -33 -26 -75 0 -41 5 -56 25 -75 33 -34 93
-34 132 -1 24 21 28 32 28 76 0 44 -4 55 -28 76 -38 33 -95 33 -131 -1z m92
-27 c16 -16 16 -80 0 -96 -29 -29 -68 -2 -68 48 0 50 39 77 68 48z"/>
<path d="M2820 990 l0 -100 25 0 c24 0 25 2 25 69 0 76 16 104 48 84 13 -7 18
-28 20 -82 3 -68 4 -71 27 -71 25 0 25 2 25 83 0 69 -3 87 -18 100 -22 20 -73
22 -90 5 -9 -9 -12 -9 -12 0 0 7 -11 12 -25 12 l-25 0 0 -100z"/>
<path d="M3062 1070 c-41 -39 -42 -129 -1 -162 32 -27 100 -24 127 5 29 31 28
37 -8 37 -16 0 -30 -5 -30 -11 0 -6 -12 -9 -27 -7 -20 2 -29 9 -31 26 -3 21 0
22 57 22 l61 0 0 30 c0 69 -97 108 -148 60z m88 -24 c0 -2 3 -11 6 -20 5 -13
-1 -16 -30 -16 -34 0 -47 15 -29 33 7 8 53 10 53 3z"/>
<path d="M3274 1065 c-68 -69 -8 -203 75 -165 30 14 37 6 23 -25 -12 -26 -40
-33 -60 -13 -16 16 -62 19 -62 5 1 -29 42 -57 85 -57 33 0 81 24 89 45 3 9 6
65 6 125 l0 108 -66 0 c-56 0 -70 -3 -90 -23z m95 -29 c17 -20 10 -77 -11 -90
-26 -16 -52 4 -56 41 -5 49 40 81 67 49z"/>
<path d="M3480 990 c0 -98 0 -100 24 -100 21 0 24 5 30 61 7 67 18 89 47 89
14 0 19 7 19 25 0 28 -26 34 -49 13 -11 -10 -14 -10 -18 0 -3 6 -16 12 -29 12
-24 0 -24 -1 -24 -100z"/>
<path d="M3646 1065 c-21 -20 -26 -33 -26 -75 0 -67 30 -100 90 -100 33 0 48
6 72 30 28 28 30 36 25 78 -4 34 -12 53 -32 69 -36 32 -93 31 -129 -2z m92
-27 c16 -16 16 -80 0 -96 -29 -29 -68 -2 -68 48 0 50 39 77 68 48z"/>
<path d="M1088 743 c501 -2 1323 -2 1825 0 501 1 91 2 -913 2 -1004 0 -1414
-1 -912 -2z"/>
<path d="M2200 596 c0 -21 -5 -25 -32 -28 -40 -4 -58 -42 -40 -83 10 -21 18
-25 57 -25 l46 0 -3 77 c-2 50 -7 78 -15 81 -8 2 -13 -6 -13 -22z m-5 -82 c0
-19 -6 -30 -17 -32 -21 -4 -34 34 -17 54 18 22 34 11 34 -22z"/>
<path d="M2770 605 c0 -8 7 -15 15 -15 8 0 15 7 15 15 0 8 -7 15 -15 15 -8 0
-15 -7 -15 -15z"/>
<path d="M3210 606 c0 -9 7 -16 16 -16 9 0 14 5 12 12 -6 18 -28 21 -28 4z"/>
<path d="M650 536 l0 -76 44 0 c36 0 48 5 65 26 44 56 15 113 -62 121 l-47 6
0 -77z m85 -1 c0 -36 -3 -40 -27 -43 -27 -3 -28 -2 -28 43 0 45 1 46 28 43 24
-3 27 -7 27 -43z"/>
<path d="M2437 536 c-25 -73 -25 -76 -6 -76 10 0 19 7 19 15 0 10 10 15 29 15
16 0 31 -6 35 -15 3 -8 12 -15 21 -15 17 0 14 20 -15 98 -12 32 -24 48 -38 50
-17 3 -24 -9 -45 -72z m53 25 c0 -5 3 -16 6 -25 4 -11 0 -16 -14 -16 -15 0
-18 5 -14 25 4 23 22 36 22 16z"/>
<path d="M1260 586 c0 -8 -6 -17 -12 -19 -10 -4 -10 -8 -1 -14 6 -4 13 -26 15
-48 2 -33 7 -41 26 -43 12 -2 22 1 22 7 0 6 -4 11 -10 11 -15 0 -12 67 3 74
10 5 10 7 0 12 -7 3 -13 12 -13 20 0 8 -7 14 -15 14 -8 0 -15 -6 -15 -14z"/>
<path d="M1878 583 c-5 -70 8 -123 32 -123 21 0 27 15 10 25 -14 9 -7 54 9 65
10 6 9 12 -8 29 -26 26 -40 27 -43 4z"/>
<path d="M2700 586 c0 -8 -6 -17 -12 -19 -10 -4 -10 -8 -1 -14 6 -4 13 -26 15
-48 2 -33 7 -41 26 -43 12 -2 22 1 22 7 0 6 -4 11 -10 11 -15 0 -12 67 3 74
10 5 10 7 0 12 -7 3 -13 12 -13 20 0 8 -7 14 -15 14 -8 0 -15 -6 -15 -14z"/>
<path d="M803 544 c-15 -24 -15 -29 -2 -53 11 -20 22 -26 49 -26 18 0 35 6 38
13 3 9 -4 12 -23 10 -16 -2 -30 2 -32 10 -3 8 7 12 31 12 38 0 43 8 26 41 -16
29 -65 25 -87 -7z m62 -4 c3 -5 -3 -10 -14 -10 -12 0 -21 5 -21 10 0 6 6 10
14 10 8 0 18 -4 21 -10z"/>
<path d="M920 494 c0 -59 3 -74 15 -74 8 0 15 9 15 20 0 15 7 20 25 20 35 0
61 43 49 78 -8 24 -15 27 -57 29 l-47 2 0 -75z m65 20 c0 -19 -5 -29 -15 -29
-16 0 -25 28 -16 51 10 25 31 10 31 -22z"/>
<path d="M1057 563 c-15 -14 -6 -25 17 -19 37 9 40 -7 4 -18 -26 -9 -33 -17
-33 -36 0 -23 4 -25 48 -28 l47 -3 0 43 c0 24 -5 49 -12 56 -13 13 -60 16 -71
5z m53 -63 c0 -12 -28 -25 -36 -17 -9 9 6 27 22 27 8 0 14 -5 14 -10z"/>
<path d="M1170 514 c0 -41 4 -54 15 -54 11 0 15 11 15 40 0 29 4 40 15 40 30
0 15 27 -15 28 -30 1 -30 0 -30 -54z"/>
<path d="M1337 564 c-16 -16 -5 -25 23 -19 17 4 30 2 30 -3 0 -5 -13 -12 -29
-15 -61 -13 -45 -67 21 -67 l39 0 -3 53 c-3 52 -3 52 -38 55 -20 2 -39 0 -43
-4z m53 -69 c0 -8 -6 -15 -14 -15 -17 0 -28 14 -19 24 12 12 33 6 33 -9z"/>
<path d="M1450 514 c0 -40 4 -54 14 -54 10 0 16 13 18 42 4 59 28 63 28 4 0
-33 4 -46 14 -46 10 0 16 14 18 43 2 29 8 42 18 42 10 0 16 -13 18 -42 2 -29
8 -43 18 -43 18 0 20 83 2 97 -7 6 -43 10 -80 10 l-68 1 0 -54z"/>
<path d="M1642 558 c-7 -7 -12 -26 -12 -43 0 -17 5 -36 12 -43 17 -17 63 -15
79 4 11 14 9 15 -21 12 -20 -2 -35 2 -37 10 -3 8 7 12 31 12 28 0 36 4 36 18
0 25 -20 42 -50 42 -14 0 -31 -5 -38 -12z m53 -18 c3 -5 -3 -10 -15 -10 -12 0
-18 5 -15 10 3 6 10 10 15 10 5 0 12 -4 15 -10z"/>
<path d="M1750 514 c0 -41 4 -54 15 -54 10 0 15 10 15 33 0 17 4 38 9 46 15
23 31 2 31 -40 0 -29 4 -39 16 -39 12 0 14 10 12 53 l-3 52 -47 2 -48 2 0 -55z"/>
<path d="M1962 558 c-7 -7 -12 -26 -12 -43 0 -38 16 -55 51 -55 32 0 52 21 52
55 0 14 -6 32 -13 40 -15 18 -61 20 -78 3z m53 -44 c0 -19 -5 -29 -15 -29 -16
0 -25 28 -16 51 10 25 31 10 31 -22z"/>
<path d="M2260 551 c-14 -26 -13 -64 2 -79 17 -17 63 -15 78 3 11 13 8 15 -20
13 -19 -2 -35 2 -37 10 -3 8 7 12 31 12 28 0 36 4 36 18 0 42 -70 60 -90 23z
m60 -11 c0 -5 -9 -10 -21 -10 -11 0 -17 5 -14 10 3 6 13 10 21 10 8 0 14 -4
14 -10z"/>
<path d="M2570 514 c0 -40 4 -54 14 -54 10 0 16 14 18 43 2 29 8 42 18 42 10
0 16 -13 18 -42 2 -29 8 -43 18 -43 10 0 14 12 14 43 0 57 -8 66 -58 65 l-42
0 0 -54z"/>
<path d="M2770 515 c0 -42 3 -55 15 -55 12 0 15 13 15 55 0 42 -3 55 -15 55
-12 0 -15 -13 -15 -55z"/>
<path d="M2837 552 c-37 -41 -8 -95 47 -90 62 6 60 108 -2 108 -16 0 -36 -8
-45 -18z m58 -37 c0 -33 -28 -47 -39 -19 -10 25 3 56 22 52 11 -2 17 -13 17
-33z"/>
<path d="M2962 558 c-7 -7 -12 -26 -12 -43 0 -37 16 -55 47 -55 16 0 23 -6 23
-20 0 -11 7 -20 15 -20 12 0 15 15 15 75 l0 75 -38 0 c-21 0 -43 -5 -50 -12z
m53 -44 c0 -19 -5 -29 -15 -29 -16 0 -25 28 -16 51 10 25 31 10 31 -22z"/>
<path d="M3080 528 c0 -58 8 -67 58 -66 l42 0 0 54 c0 41 -4 54 -15 54 -10 0
-15 -10 -15 -32 0 -18 -4 -39 -9 -47 -15 -23 -31 -2 -31 40 0 28 -4 39 -15 39
-11 0 -15 -11 -15 -42z"/>
<path d="M3210 515 c0 -42 3 -55 15 -55 12 0 15 13 15 55 0 42 -3 55 -15 55
-12 0 -15 -13 -15 -55z"/>
<path d="M3269 554 c-12 -15 -11 -16 19 -10 19 5 32 4 32 -2 0 -6 -14 -13 -31
-17 -25 -6 -30 -11 -27 -33 3 -24 8 -27 46 -30 l43 -3 -3 53 c-3 51 -4 53 -34
56 -19 2 -36 -3 -45 -14z m51 -59 c0 -8 -7 -15 -15 -15 -8 0 -15 7 -15 15 0 8
7 15 15 15 8 0 15 -7 15 -15z"/>
</g>
</svg>
